<svg xmlns="http://www.w3.org/2000/svg" version="1.1" xmlns:xlink="http://www.w3.org/1999/xlink" xmlns:svgjs="http://svgjs.dev/svgjs" width="2000" height="1247" viewBox="0 0 2000 1247"><g transform="matrix(1,0,0,1,-1.2121212121212466,0.504858299595071)"><svg viewBox="0 0 396 247" data-background-color="#ffffff" preserveAspectRatio="xMidYMid meet" height="1247" width="2000" xmlns="http://www.w3.org/2000/svg" xmlns:xlink="http://www.w3.org/1999/xlink"><g id="tight-bounds" transform="matrix(1,0,0,1,0.2400000000000091,-0.09999999999999432)"><svg viewBox="0 0 395.52 247.2" height="247.2" width="395.52"><g><svg></svg></g><g><svg viewBox="0 0 395.52 247.2" height="247.2" width="395.52"><g transform="matrix(1,0,0,1,75.54432000000001,49.071959142018414)"><svg viewBox="0 0 244.43135999999996 149.05608171596316" height="149.05608171596316" width="244.43135999999996"><g><svg viewBox="0 0 244.43135999999996 149.05608171596316" height="149.05608171596316" width="244.43135999999996"><g><svg viewBox="0 0 244.43136 149.0560817159632" height="149.05608171596316" width="244.43135999999996"><g><svg viewBox="0 0 244.43136 149.0560817159632" height="149.0560817159632" width="244.43136"><g id="textblocktransform"><svg viewBox="0 0 244.43136 149.0560817159632" height="149.0560817159632" width="244.43136" id="textblock"><g><svg viewBox="0 0 244.43136 99.82269220169745" height="99.82269220169745" width="244.43136"><g transform="matrix(1,0,0,1,0,0)"><svg width="244.43136" viewBox="2.93 -38.23 97.8 39.94" height="99.82269220169745" data-palette-color="#41907a"><path d="M13.7-16.65L13.7-16.65Q13.7-14.89 14.07-13.12 14.45-11.35 15.33-9.94 16.21-8.52 17.65-7.64 19.09-6.76 21.22-6.76L21.22-6.76Q22.85-6.86 24.08-7.43 25.32-8.01 26.21-8.92 27.1-9.84 27.69-11.02 28.27-12.21 28.61-13.51 28.96-14.82 29.09-16.19 29.22-17.55 29.22-18.82L29.22-18.82Q29.22-20.56 28.76-22.18 28.3-23.8 27.37-25.05 26.44-26.29 25.06-27.05 23.68-27.81 21.85-27.81L21.85-27.81Q20.41-27.81 19.25-27.27 18.09-26.73 17.19-25.84 16.28-24.95 15.64-23.79 14.99-22.63 14.56-21.4 14.14-20.17 13.93-18.93 13.72-17.7 13.7-16.65ZM18.46 1.27L18.46 1.27Q14.79 1.27 11.91-0.1 9.03-1.46 7.04-3.8 5.05-6.13 3.99-9.19 2.93-12.26 2.93-15.67L2.93-15.67Q2.93-19.51 4.02-22.74 5.1-25.98 7.06-28.48 9.01-30.98 11.71-32.7 14.4-34.42 17.63-35.25L17.63-35.25Q17.92-35.25 18.08-35.72 18.24-36.18 18.36-36.74 18.48-37.3 18.65-37.77 18.82-38.23 19.14-38.23L19.14-38.23Q23.88-37.74 27.66-36.56 31.45-35.38 34.08-33.18 36.72-30.98 38.12-27.62 39.53-24.27 39.53-19.43L39.53-19.43Q39.53-16.33 38.77-13.6 38.01-10.86 36.65-8.56 35.28-6.25 33.36-4.43 31.45-2.61 29.1-1.34 26.76-0.07 24.06 0.6 21.36 1.27 18.46 1.27ZM67.16-20.07L67.16-20.07Q67.06-19.7 66.79-19.02 66.53-18.33 66.18-17.47 65.84-16.6 65.43-15.64 65.01-14.67 64.62-13.75L64.62-13.75Q64.45-13.33 64.22-13.13 63.99-12.94 63.28-12.92L63.28-12.92 56.15-12.79 55.27-1.95Q55.25-1.73 55.15-1.53 55.05-1.32 54.86-1.2L54.86-1.2Q54.78-1.15 54.28-0.92 53.78-0.68 53.02-0.37 52.27-0.05 51.36 0.32 50.46 0.68 49.58 0.99 48.7 1.29 47.97 1.5 47.24 1.71 46.82 1.71L46.82 1.71Q46.34 1.71 45.93 1.53 45.53 1.34 45.53 0.78L45.53 0.78Q45.51-0.44 45.59-1.92 45.68-3.39 45.8-4.92 45.92-6.45 46.07-7.92 46.21-9.4 46.31-10.62L46.31-10.62 46.48-12.67Q44.43-12.67 43.55-12.78 42.67-12.89 42.67-13.35L42.67-13.35Q42.67-13.67 43.04-14.18L43.04-14.18Q43.55-14.89 44.2-15.89 44.85-16.89 45.44-17.85 46.04-18.8 46.49-19.53 46.95-20.26 47.07-20.43L47.07-20.43 47.53-27.15Q47.07-27.15 46.73-27.14 46.38-27.12 46.1-27.11 45.82-27.1 45.58-27.09 45.33-27.08 45.07-27.08L45.07-27.08Q43.89-27.08 43.39-27.21 42.89-27.34 42.89-27.71L42.89-27.71Q42.89-27.88 43.19-28.42 43.48-28.96 43.91-29.65 44.33-30.35 44.83-31.12 45.33-31.88 45.73-32.54L45.73-32.54 47.19-35.03 58.3-35.42Q60.45-35.5 62.57-35.58 64.69-35.67 66.49-35.74 68.28-35.82 69.58-35.88 70.87-35.94 71.38-35.96L71.38-35.96Q71.41-35.96 71.52-35.95 71.63-35.94 71.75-35.88 71.87-35.82 71.98-35.67 72.09-35.52 72.09-35.25L72.09-35.25Q72.09-35.11 71.75-34.28 71.41-33.45 70.77-31.81L70.77-31.81 69.7-28.98Q69.53-28.56 69.31-28.34 69.09-28.13 68.38-28.1L68.38-28.1Q67.55-28.08 66.7-28.03 65.84-27.98 64.94-27.93L64.94-27.93 57.52-27.56Q57.37-26.61 57.31-26.15 57.25-25.68 57.24-25.38 57.22-25.07 57.22-24.77 57.22-24.46 57.2-23.8L57.2-23.8Q57.18-23.34 57.14-23.02 57.1-22.71 57.07-22.4 57.03-22.09 56.99-21.75 56.96-21.41 56.93-20.9L56.93-20.9Q58.54-20.95 60.09-21 61.64-21.04 62.95-21.09 64.26-21.14 65.21-21.18 66.16-21.22 66.55-21.22L66.55-21.22Q66.75-21.22 66.99-21.07 67.23-20.92 67.23-20.51L67.23-20.51Q67.23-20.31 67.16-20.07ZM77.58 0.88L77.58 0.78Q77.7-1 77.83-2.66 77.95-4.32 78.05-5.88L78.05-5.88 78.93-17.41Q79.07-18.73 79.17-19.81 79.27-20.9 79.33-21.94 79.39-22.97 79.45-24.04 79.51-25.1 79.58-26.39L79.58-26.39Q78.78-26.42 77.89-26.42 77-26.42 76.02-26.42L76.02-26.42 71.31-26.42Q71.04-26.42 70.98-26.62 70.92-26.83 70.92-27L70.92-27 70.92-27.17 73.6-34.23 73.58-34.33Q73.58-34.45 73.74-34.53 73.9-34.62 74.46-34.67L74.46-34.67Q77.83-34.86 80.99-35.05 84.15-35.23 87.24-35.38 90.33-35.52 93.42-35.67 96.5-35.82 99.78-35.94L99.78-35.94Q100.07-35.94 100.4-35.86 100.73-35.79 100.73-35.33L100.73-35.33Q100.73-35.28 100.7-35.23 100.68-35.18 100.68-35.13L100.68-35.13Q100.29-34.13 99.96-33.23 99.63-32.32 99.31-31.45 98.99-30.57 98.66-29.66 98.33-28.76 97.94-27.76L97.94-27.76Q97.92-27.73 97.85-27.53 97.77-27.32 97.63-27.06 97.48-26.81 97.24-26.59 96.99-26.37 96.63-26.34L96.63-26.34Q96.5-26.37 96.38-26.37 96.26-26.37 96.11-26.37L96.11-26.37 89.59-26.37Q89.47-25.12 89.36-23.73 89.25-22.34 89.11-21.02L89.11-21.02 87.32-1.95Q87.3-1.73 87.24-1.51 87.18-1.29 86.91-1.2L86.91-1.2 80 1.29Q79.73 1.39 79.29 1.54 78.85 1.68 78.44 1.68L78.44 1.68Q78.1 1.68 77.84 1.51 77.58 1.34 77.58 0.88L77.58 0.88Z" opacity="1" transform="matrix(1,0,0,1,0,0)" fill="#41907a" class="wordmark-text-0" data-fill-palette-color="primary" id="text-0"></path></svg></g></svg></g><g transform="matrix(1,0,0,1,0,123.38843408590537)"><svg viewBox="0 0 244.43136 25.667647630057807" height="25.667647630057807" width="244.43136"><g transform="matrix(1,0,0,1,0,0)"><svg width="244.43136" viewBox="0.05 -26.15 259.47999999999996 27.25" height="25.667647630057807" data-palette-color="#41907a"><path d="M23.6-21.75L23.6-21.75Q22.3-13.85 22.3-8.85 22.3-3.85 22.7 0L22.7 0 11.8 0Q10.1-7.95 10.1-17.1L10.1-17.1Q10.1-18.65 10.2-21.75L10.2-21.75Q5.95-20.5 5-16L5-16 0.05-16.3 1.85-25 35.1-25Q34.1-19.5 32.8-16L32.8-16 27.75-16.3Q27.95-17.1 27.95-17.9L27.95-17.9Q27.95-19.85 26.75-20.8 25.55-21.75 23.6-21.75ZM66.35-16.3L66.35-16.3 66.3-14.6Q62.3-12.45 56.3-11.25L56.3-11.25Q60.6-10.1 64.6-10.1L64.6-10.1 65.65-10.1Q68.4-6.05 69.2 0L69.2 0 56.25 0Q55.75-3.5 54.22-6.03 52.7-8.55 50.5-9.45L50.5-9.45Q50.45-8.6 50.45-6.05 50.45-3.5 50.75 0L50.75 0 39.85 0Q38.4-7.25 38.4-13.48 38.4-19.7 39.1-25L39.1-25 65.2-25Q66.35-19.95 66.35-16.3ZM51.55-21.65L51.55-21.65Q50.95-17.25 50.65-13L50.65-13Q53.4-13.4 55.15-14.95L55.15-14.95Q54.2-18.3 51.55-21.65ZM105.05-0.4L105.05-0.4 105.05 0 93.45 0Q93.25-2.85 92.6-5.9L92.6-5.9Q89.5-2.75 85.6 0L85.6 0 73.95 0Q73.6-2.05 73.6-5.43 73.6-8.8 74.6-12.2L74.6-12.2Q78.2-13.25 81.52-15.75 84.85-18.25 86.35-21.15L86.35-21.15Q85-23.25 83.5-25L83.5-25 100.1-25Q105.05-14.25 105.05-0.4ZM91.7-9.55L91.7-9.55Q90.4-14 88.3-17.95L88.3-17.95Q85.95-11.05 85.6-4.9L85.6-4.9Q89.2-6.75 91.7-9.55ZM128.44-21.95L128.44-21.95Q126.69-22.25 125.07-22.25 123.44-22.25 121.14-21.7L121.14-21.7Q120.39-18.55 120.39-15.55L120.39-15.55Q120.39-7.8 127.29-3.65L127.29-3.65Q131.89-6.7 135.59-11.25L135.59-11.25Q135.74-9.25 135.84-5.15L135.84-5.15Q132.14-2.25 128.29-0.6 124.44 1.05 118.69 1.05L118.69 1.05 117.54 1.05Q113.04-0.9 110.47-4.7 107.89-8.5 107.89-12.7L107.89-12.7Q107.89-18.3 112.49-22.23 117.09-26.15 125.84-26.15L125.84-26.15Q130.74-26.15 136.09-24.9L136.09-24.9Q135.29-21.75 134.09-18.95L134.09-18.95Q130.94-18.65 127.59-18.65L127.59-18.65Q128.09-20.05 128.44-21.95ZM166.09-25.35L166.09-25.35 167.74-25.35Q170.94-25.35 172.49-26.1L172.49-26.1Q170.29-22.85 168.24-20.45L168.24-20.45 167.44-20.45Q164.89-20.45 162.49-21.25L162.49-21.25Q159.09-18.45 157.04-13.8L157.04-13.8Q162.34-12.45 168.84-12.2L168.84-12.2Q170.34-8.4 170.89 0L170.89 0 157.94 0Q157.09-3.7 155.37-6.83 153.64-9.95 151.79-11.1L151.79-11.1Q151.44-7 151.44-4.5 151.44-2 151.59 0L151.59 0 140.59 0Q139.64-7.35 139.64-12.43 139.64-17.5 140.39-25L140.39-25 154.29-25Q152.79-18.8 152.24-14.6L152.24-14.6Q154.49-18.3 156.97-20.83 159.44-23.35 162.84-25.1L162.84-25.1Q164.14-25.35 166.09-25.35ZM176.49-25L189.99-25 189.99-23.65Q189.99-10.45 188.34 0L188.34 0 176.34 0Q177.29-4.6 177.29-10.63 177.29-16.65 176.49-25L176.49-25ZM219.09-25L225.04-25Q225.34-19.75 225.34-13.93 225.34-8.1 224.84 0L224.84 0 220.04 0Q210.34-5.2 202.24-14.15L202.24-14.15Q202.64-10.8 202.64-7.28 202.64-3.75 202.39 0L202.39 0 196.54 0Q197.54-6.15 197.54-11.38 197.54-16.6 197.04-19.65L197.04-19.65Q195.04-22.65 193.89-25L193.89-25 208.09-25Q210.19-21.4 213.81-17.57 217.44-13.75 220.74-11.6L220.74-11.6Q220.74-18.9 219.09-25L219.09-25ZM249.28-2.45L249.28-2.45 249.33-4.55Q249.33-8.1 248.73-13L248.73-13 259.53-13Q259.53-5.9 258.83 0L258.83 0Q251.08 1.1 242.78 1.1L242.78 1.1 239.58 1.1Q235.03-0.85 232.48-4.63 229.93-8.4 229.93-12.65L229.93-12.65Q229.93-18.3 234.51-22.23 239.08-26.15 247.88-26.15L247.88-26.15Q252.48-26.15 258.13-24.9L258.13-24.9Q257.28-21.5 256.18-18.9L256.18-18.9Q253.13-18.7 249.63-18.6L249.63-18.6Q250.18-20.3 250.43-21.95L250.43-21.95Q248.83-22.25 247.16-22.25 245.48-22.25 243.18-21.7L243.18-21.7Q242.38-18.3 242.38-15.55L242.38-15.55Q242.38-11.4 244.26-7.78 246.13-4.15 249.28-2.45Z" opacity="1" transform="matrix(1,0,0,1,0,0)" fill="#41907a" class="slogan-text-1" data-fill-palette-color="secondary" id="text-1"></path></svg></g></svg></g></svg></g></svg></g></svg></g></svg></g></svg></g><path d="M252.841 43.072L252.841 0 5.641 0 5.641 247.2 252.841 247.2 252.841 204.128 243.839 204.128 243.839 238.198 14.643 238.198 14.643 9.002 243.839 9.002 243.839 43.072Z" fill="#41907a" stroke="transparent" data-fill-palette-color="tertiary"></path></svg></g><defs></defs></svg><rect width="395.52" height="247.2" fill="none" stroke="none" visibility="hidden"></rect></g></svg></g></svg>